<svg width="28" height="26" viewBox="0 0 28 26" fill="none" xmlns="http://www.w3.org/2000/svg">
<g clip-path="url(#clip0_2_1487)">
<path d="M27.1019 13.2925C27.1019 12.4367 27.022 11.6242 26.885 10.8333H13.9875V15.7192H21.3722C21.0412 17.3225 20.071 18.6767 18.6329 19.5975V22.8475H23.0386C25.6181 20.5833 27.1019 17.2467 27.1019 13.2925Z" fill="white"/>
<path d="M13.9875 26C17.6855 26 20.7786 24.83 23.0385 22.8475L18.6329 19.5975C17.4002 20.3775 15.8365 20.8542 13.9875 20.8542C10.415 20.8542 7.39038 18.5683 6.30608 15.4808H1.76343V18.8283C4.01192 23.075 8.63447 26 13.9875 26Z" fill="white"/>
<path d="M6.30603 15.4808C6.02069 14.7008 5.87231 13.8667 5.87231 13C5.87231 12.1333 6.0321 11.2992 6.30603 10.5192V7.17166H1.76338C0.827458 8.92666 0.291016 10.8983 0.291016 13C0.291016 15.1017 0.827458 17.0733 1.76338 18.8283L6.30603 15.4808Z" fill="white"/>
<path d="M13.9875 5.14583C16.0077 5.14583 17.8111 5.80667 19.2378 7.09584L23.1413 3.39083C20.7786 1.28917 17.6855 0 13.9875 0C8.63447 0 4.01192 2.925 1.76343 7.17167L6.30608 10.5192C7.39038 7.43167 10.415 5.14583 13.9875 5.14583Z" fill="white"/>
</g>
<defs>
<clipPath id="clip0_2_1487">
<rect width="27.3929" height="26" fill="white"/>
</clipPath>
</defs>
</svg>
